<?xml version="1.0" encoding="utf-8"?>
<!-- Generator: Adobe Illustrator 27.5.0, SVG Export Plug-In . SVG Version: 6.00 Build 0)  -->
<svg version="1.1" xmlns="http://www.w3.org/2000/svg" xmlns:xlink="http://www.w3.org/1999/xlink" x="0px" y="0px"
	 viewBox="0 0 500 500" style="enable-background:new 0 0 500 500;" xml:space="preserve">
<g id="Floor">
	<ellipse id="Floor_5_" style="fill:#F5F5F5;" cx="250" cy="351.358" rx="236" ry="135.805"/>
</g>
<g id="Shadows">
	<ellipse id="Shadow_6_" style="fill:#E0E0E0;" cx="76.087" cy="382.027" rx="34.637" ry="19.997"/>
	<ellipse id="Shadow_21_" style="fill:#E0E0E0;" cx="336.778" cy="421.683" rx="67.32" ry="38.867"/>
	<ellipse id="Shadow_13_" style="fill:#E0E0E0;" cx="227.353" cy="352.225" rx="136.007" ry="78.524"/>
	<path id="Shadow_22_" style="fill:#E0E0E0;" d="M370.595,396.218l-85.861-49.383c-1.206-0.694-1.207-1.82-0.002-2.516
		l96.234-55.561c1.205-0.696,3.159-0.696,4.364,0l85.691,49.476c1.205,0.696,1.205,1.824,0,2.519l-96.06,55.46
		C373.755,396.91,371.801,396.912,370.595,396.218z"/>
</g>
<g id="Paper_Planes_1_">
	<g id="Paper_Planes">
		<g id="Paper_Plane_1_">
			<g id="XMLID_16655_">
				<polygon id="XMLID_16653_" style="fill:#27DEBF;" points="61.044,152.442 94.659,132.571 71.326,158.517 				"/>
				<polygon id="XMLID_16654_" style="fill:#27DEBF;" points="94.659,132.571 57.108,148.268 46.827,142.193 				"/>
				<polygon id="XMLID_16619_" style="fill:#27DEBF;" points="57.108,148.268 59.398,157.937 61.044,152.442 94.659,132.571 				"/>
				<polygon id="XMLID_596_" style="opacity:0.2;" points="57.108,148.268 59.398,157.937 61.044,152.442 94.659,132.571 				"/>
				<polygon id="XMLID_16671_" style="fill:#27DEBF;" points="59.398,157.937 64.471,154.467 61.044,152.442 				"/>
				<polygon id="XMLID_587_" style="opacity:0.2;" points="61.044,152.442 64.471,154.467 63.662,155.021 				"/>
			</g>
			<g id="XMLID_586_">
				<g>
					<path style="fill:#E0E0E0;" d="M51.233,160.914c-0.176,0-0.352-0.07-0.482-0.209c-0.25-0.266-0.237-0.685,0.03-0.934
						c0.678-0.636,1.361-1.231,2.028-1.769c0.283-0.227,0.699-0.186,0.929,0.1c0.229,0.285,0.185,0.7-0.1,0.929
						c-0.642,0.517-1.299,1.091-1.953,1.703C51.557,160.855,51.396,160.914,51.233,160.914z"/>
				</g>
				<g>
					<path style="fill:#E0E0E0;" d="M100.613,236.537c-1.306-0.001-2.592-0.022-3.857-0.064c-0.365-0.013-0.65-0.318-0.639-0.683
						c0.013-0.363,0.29-0.619,0.683-0.639c1.688,0.057,3.411,0.076,5.172,0.057c0.002,0,0.005,0,0.007,0
						c0.362,0,0.657,0.291,0.661,0.654c0.004,0.364-0.289,0.664-0.654,0.667C101.526,236.534,101.068,236.537,100.613,236.537z
						 M106.31,236.401c-0.35,0-0.642-0.276-0.659-0.63c-0.017-0.364,0.264-0.674,0.629-0.691c1.692-0.08,3.428-0.197,5.163-0.349
						c0.363-0.011,0.684,0.238,0.716,0.601c0.032,0.363-0.238,0.684-0.601,0.716c-1.753,0.153-3.508,0.271-5.217,0.351
						C106.331,236.401,106.32,236.401,106.31,236.401z M92.45,236.241c-0.016,0-0.033,0-0.049-0.002
						c-1.745-0.128-3.498-0.303-5.209-0.518c-0.362-0.046-0.618-0.377-0.573-0.739c0.046-0.362,0.377-0.611,0.739-0.573
						c1.688,0.213,3.417,0.386,5.139,0.513c0.365,0.027,0.638,0.343,0.611,0.707C93.083,235.976,92.792,236.241,92.45,236.241z
						 M115.812,235.605c-0.33,0-0.615-0.246-0.655-0.583c-0.043-0.361,0.215-0.69,0.578-0.734c1.683-0.201,3.409-0.439,5.131-0.705
						c0.352-0.062,0.697,0.19,0.754,0.552c0.056,0.361-0.191,0.698-0.552,0.754c-1.736,0.269-3.477,0.508-5.177,0.711
						C115.865,235.604,115.838,235.605,115.812,235.605z M82.99,235.087c-0.037,0-0.076-0.003-0.113-0.01
						c-1.747-0.303-3.475-0.654-5.134-1.042c-0.355-0.083-0.576-0.439-0.492-0.794c0.084-0.354,0.442-0.572,0.794-0.492
						c1.634,0.383,3.336,0.728,5.057,1.027c0.36,0.063,0.601,0.405,0.539,0.764C83.584,234.861,83.305,235.087,82.99,235.087z
						 M73.7,232.955c-0.061,0-0.122-0.009-0.184-0.026c-1.693-0.491-3.371-1.039-4.986-1.629c-0.342-0.125-0.519-0.504-0.393-0.847
						c0.123-0.342,0.502-0.523,0.847-0.393c1.587,0.579,3.236,1.118,4.9,1.6c0.351,0.102,0.553,0.468,0.451,0.818
						C74.251,232.767,73.987,232.955,73.7,232.955z M64.734,229.733c-0.089,0-0.178-0.017-0.264-0.055
						c-1.623-0.707-3.215-1.473-4.731-2.279c-0.322-0.171-0.444-0.571-0.273-0.894c0.172-0.32,0.571-0.442,0.894-0.273
						c1.485,0.789,3.046,1.542,4.637,2.235c0.335,0.145,0.488,0.535,0.342,0.869C65.232,229.585,64.989,229.733,64.734,229.733z
						 M56.295,225.309c-0.119,0-0.24-0.033-0.35-0.101c-1.506-0.943-2.962-1.949-4.327-2.991c-0.289-0.221-0.345-0.636-0.124-0.926
						c0.221-0.289,0.634-0.346,0.926-0.124c1.333,1.016,2.754,1.999,4.227,2.922c0.309,0.193,0.403,0.601,0.209,0.911
						C56.73,225.2,56.515,225.309,56.295,225.309z M48.686,219.584c-0.159,0-0.317-0.057-0.443-0.17
						c-1.321-1.196-2.57-2.456-3.709-3.747c-0.241-0.273-0.215-0.691,0.058-0.933c0.273-0.24,0.69-0.217,0.933,0.058
						c1.107,1.254,2.321,2.478,3.605,3.641c0.27,0.245,0.291,0.664,0.047,0.934C49.046,219.511,48.866,219.584,48.686,219.584z
						 M42.329,212.502c-0.207,0-0.41-0.096-0.539-0.276c-1.044-1.462-1.977-2.977-2.772-4.505c-0.168-0.323-0.042-0.722,0.282-0.891
						c0.325-0.168,0.722-0.041,0.892,0.282c0.766,1.472,1.666,2.935,2.674,4.346c0.213,0.297,0.143,0.71-0.153,0.922
						C42.596,212.462,42.462,212.502,42.329,212.502z M37.862,204.111c-0.271,0-0.525-0.167-0.622-0.438
						c-0.457-1.273-0.825-2.56-1.092-3.827c-0.093-0.439-0.177-0.875-0.251-1.313c-0.061-0.36,0.183-0.701,0.542-0.762
						c0.352-0.06,0.7,0.182,0.762,0.542c0.07,0.418,0.15,0.838,0.239,1.258c0.256,1.208,0.607,2.437,1.044,3.654
						c0.123,0.343-0.056,0.721-0.399,0.845C38.012,204.098,37.936,204.111,37.862,204.111z M36.108,194.777
						c-0.355,0-0.648-0.281-0.661-0.638c-0.014-0.422-0.022-0.843-0.022-1.263c0-1.322,0.077-2.677,0.228-4.028
						c0.041-0.363,0.381-0.621,0.731-0.583c0.363,0.04,0.623,0.367,0.583,0.731c-0.146,1.301-0.22,2.606-0.22,3.879
						c0,0.404,0.008,0.81,0.022,1.216c0.013,0.365-0.273,0.671-0.638,0.684C36.123,194.777,36.116,194.777,36.108,194.777z
						 M37.041,185.313c-0.049,0-0.099-0.005-0.148-0.016c-0.356-0.082-0.578-0.436-0.497-0.791c0.384-1.678,0.887-3.381,1.493-5.062
						c0.123-0.343,0.501-0.522,0.845-0.397c0.343,0.123,0.521,0.502,0.397,0.845c-0.588,1.632-1.075,3.283-1.447,4.908
						C37.614,185.106,37.342,185.313,37.041,185.313z M40.171,176.323c-0.094,0-0.19-0.02-0.281-0.063
						c-0.331-0.155-0.472-0.549-0.317-0.879c0.737-1.568,1.569-3.131,2.477-4.648c0.188-0.312,0.592-0.415,0.907-0.228
						c0.314,0.188,0.414,0.593,0.228,0.907c-0.886,1.478-1.698,3.002-2.416,4.531C40.657,176.183,40.419,176.323,40.171,176.323z
						 M44.995,168.108c-0.133,0-0.266-0.039-0.383-0.123c-0.297-0.212-0.366-0.624-0.154-0.921c1.028-1.44,2.128-2.829,3.272-4.13
						c0.241-0.273,0.658-0.302,0.933-0.06c0.274,0.241,0.301,0.659,0.06,0.933c-1.114,1.267-2.187,2.621-3.189,4.024
						C45.405,168.012,45.202,168.108,44.995,168.108z"/>
				</g>
				<g>
					<path style="fill:#E0E0E0;" d="M125.302,234.161c-0.312,0-0.59-0.222-0.649-0.54c-0.066-0.359,0.171-0.704,0.53-0.77
						c0.855-0.158,1.718-0.324,2.585-0.5c0.357-0.071,0.707,0.16,0.779,0.517c0.072,0.358-0.16,0.706-0.517,0.779
						c-0.875,0.176-1.744,0.344-2.606,0.504C125.383,234.157,125.343,234.161,125.302,234.161z"/>
				</g>
			</g>
		</g>
		<g id="Paper_Plane">
			<polygon id="XMLID_16609_" style="fill:#27DEBF;" points="357.039,168.981 396.619,149.185 412.387,156.16 			"/>
			<polygon id="XMLID_16612_" style="fill:#27DEBF;" points="357.039,168.981 391.907,145.672 385.662,136.697 			"/>
			<polygon id="XMLID_602_" style="fill:#27DEBF;" points="391.907,145.672 391.248,151.871 357.039,168.981 			"/>
			<polygon id="XMLID_584_" style="opacity:0.2;" points="391.907,145.672 391.248,151.871 357.039,168.981 			"/>
			<g id="XMLID_583_">
				<path style="fill:#E0E0E0;" d="M397.383,145.597c-0.193,0-0.386-0.085-0.516-0.248c-0.228-0.285-0.182-0.7,0.104-0.929
					l0.458,0.482l0.367,0.551C397.674,145.55,397.528,145.597,397.383,145.597z M400.721,142.643c-0.164,0-0.329-0.061-0.457-0.184
					c-0.264-0.252-0.273-0.67-0.02-0.934c1.176-1.229,2.252-2.589,3.197-4.043c0.197-0.306,0.608-0.393,0.914-0.194
					c0.307,0.198,0.393,0.608,0.194,0.914c-0.99,1.523-2.117,2.95-3.351,4.237C401.068,142.575,400.895,142.643,400.721,142.643z
					 M406.111,134.644c-0.092,0-0.186-0.019-0.275-0.06c-0.332-0.152-0.478-0.544-0.326-0.876c0.709-1.547,1.297-3.184,1.75-4.866
					c0.094-0.351,0.453-0.566,0.81-0.465c0.352,0.094,0.561,0.457,0.465,0.81c-0.471,1.751-1.085,3.458-1.823,5.072
					C406.601,134.501,406.361,134.644,406.111,134.644z M408.76,125.356c-0.029,0-0.059-0.002-0.087-0.006
					c-0.363-0.048-0.616-0.38-0.568-0.742c0.194-1.462,0.292-2.964,0.292-4.464c0-0.236-0.003-0.473-0.008-0.71
					c-0.008-0.365,0.283-0.666,0.647-0.674c0.005,0,0.01,0,0.013,0c0.359,0,0.654,0.288,0.661,0.647
					c0.005,0.246,0.008,0.491,0.008,0.737c0,1.558-0.102,3.119-0.304,4.637C409.369,125.115,409.086,125.356,408.76,125.356z
					 M408.687,115.694c-0.323,0-0.606-0.238-0.653-0.566c-0.245-1.696-0.618-3.4-1.111-5.065c-0.104-0.35,0.096-0.717,0.446-0.821
					c0.352-0.104,0.717,0.096,0.821,0.446c0.51,1.725,0.897,3.492,1.151,5.252c0.052,0.362-0.198,0.696-0.56,0.748
					C408.75,115.692,408.718,115.694,408.687,115.694z M406.06,106.396c-0.256,0-0.5-0.15-0.607-0.4
					c-0.678-1.577-1.476-3.129-2.374-4.616c-0.188-0.312-0.089-0.718,0.224-0.907c0.313-0.188,0.718-0.089,0.907,0.224
					c0.929,1.538,1.756,3.145,2.457,4.778c0.144,0.335-0.011,0.724-0.346,0.867C406.236,106.378,406.148,106.396,406.06,106.396z
					 M401.16,98.064c-0.198,0-0.394-0.089-0.524-0.259c-1.04-1.355-2.192-2.671-3.424-3.91c-0.257-0.259-0.255-0.677,0.004-0.935
					c0.259-0.259,0.676-0.255,0.935,0.004c1.27,1.279,2.459,2.637,3.533,4.037c0.222,0.289,0.167,0.704-0.122,0.926
					C401.443,98.019,401.301,98.064,401.16,98.064z M394.426,91.126c-0.148,0-0.296-0.049-0.419-0.15
					c-0.801-0.658-1.637-1.299-2.484-1.905c-0.562-0.402-1.136-0.794-1.719-1.178c-0.305-0.2-0.39-0.61-0.189-0.915
					c0.2-0.305,0.609-0.393,0.915-0.189c0.599,0.393,1.187,0.795,1.763,1.207c0.871,0.623,1.731,1.282,2.554,1.959
					c0.282,0.232,0.323,0.648,0.091,0.93C394.806,91.044,394.616,91.126,394.426,91.126z M386.391,85.731
					c-0.108,0-0.217-0.026-0.318-0.082c-1.482-0.818-3.057-1.604-4.681-2.335c-0.333-0.15-0.481-0.541-0.332-0.874
					c0.152-0.334,0.542-0.479,0.874-0.332c1.657,0.746,3.264,1.548,4.778,2.383c0.319,0.177,0.436,0.579,0.26,0.898
					C386.85,85.608,386.624,85.731,386.391,85.731z M377.593,81.686c-0.078,0-0.158-0.013-0.235-0.043
					c-1.601-0.609-3.27-1.182-4.959-1.702c-0.349-0.108-0.544-0.478-0.438-0.826c0.107-0.35,0.48-0.54,0.826-0.438
					c1.718,0.529,3.413,1.112,5.04,1.731c0.341,0.13,0.513,0.512,0.383,0.852C378.111,81.525,377.86,81.686,377.593,81.686z
					 M368.353,78.777c-0.054,0-0.109-0.007-0.164-0.02c-1.657-0.425-3.38-0.816-5.124-1.163c-0.358-0.071-0.59-0.419-0.519-0.777
					c0.071-0.359,0.423-0.592,0.777-0.519c1.767,0.351,3.515,0.748,5.195,1.178c0.353,0.091,0.566,0.451,0.476,0.805
					C368.916,78.579,368.648,78.777,368.353,78.777z M315.124,78.664c-0.294,0-0.563-0.197-0.639-0.495
					c-0.091-0.353,0.121-0.714,0.474-0.805c1.684-0.436,3.43-0.832,5.19-1.178c0.361-0.071,0.706,0.162,0.776,0.52
					c0.07,0.359-0.162,0.706-0.52,0.776c-1.735,0.341-3.456,0.732-5.115,1.161C315.233,78.657,315.177,78.664,315.124,78.664z
					 M358.853,76.84c-0.034,0-0.068-0.002-0.103-0.008c-1.7-0.265-3.454-0.494-5.213-0.682c-0.363-0.038-0.625-0.364-0.587-0.727
					c0.038-0.362,0.375-0.633,0.727-0.587c1.779,0.189,3.554,0.421,5.277,0.69c0.361,0.056,0.607,0.394,0.551,0.755
					C359.454,76.608,359.173,76.84,358.853,76.84z M324.614,76.74c-0.321,0-0.603-0.235-0.652-0.562
					c-0.055-0.362,0.193-0.698,0.554-0.752c1.728-0.262,3.503-0.485,5.276-0.665c0.354-0.033,0.688,0.229,0.724,0.591
					c0.037,0.363-0.228,0.687-0.591,0.724c-1.75,0.177-3.504,0.397-5.21,0.655C324.681,76.738,324.647,76.74,324.614,76.74z
					 M349.218,75.774c-0.015,0-0.031,0-0.045-0.001c-1.74-0.118-3.507-0.197-5.252-0.236c-0.365-0.008-0.654-0.311-0.646-0.675
					c0.008-0.36,0.302-0.646,0.661-0.646c0.005,0,0.01,0,0.014,0c1.765,0.038,3.553,0.118,5.311,0.238
					c0.364,0.025,0.64,0.34,0.615,0.704C349.853,75.506,349.562,75.774,349.218,75.774z M334.249,75.725
					c-0.346,0-0.637-0.269-0.659-0.62c-0.022-0.364,0.255-0.678,0.619-0.7c1.75-0.108,3.538-0.176,5.312-0.203
					c0.003,0,0.007,0,0.01,0c0.361,0,0.655,0.29,0.661,0.651c0.006,0.364-0.286,0.665-0.651,0.67
					c-1.753,0.027-3.521,0.094-5.251,0.201C334.276,75.725,334.263,75.725,334.249,75.725z"/>
			</g>
		</g>
	</g>
</g>
<g id="Furniture">
	<g id="Side_table">
		<g id="Side_table_1_">
			<g id="XMLID_5255_">
				<g id="XMLID_5311_">
					<polygon id="XMLID_5312_" style="fill:#27DEBF;" points="448.067,346.432 435.949,339.435 448.067,335.935 					"/>
				</g>
				<g id="XMLID_5309_" style="opacity:0.3;">
					<polygon id="XMLID_5310_" points="448.067,346.432 435.949,339.435 448.067,335.935 					"/>
				</g>
				<g id="XMLID_5305_">
					<polygon id="XMLID_5306_" style="fill:#27DEBF;" points="387.356,370.99 387.356,382.149 307.417,336.059 307.418,324.901 
											"/>
				</g>
				<g id="XMLID_5303_" style="opacity:0.3;">
					<polygon id="XMLID_5304_" points="387.356,370.99 387.356,382.149 307.417,336.059 307.418,324.901 					"/>
				</g>
				<g id="XMLID_5299_">
					<polygon id="XMLID_5300_" style="fill:#27DEBF;" points="301.356,237.424 381.296,283.514 381.297,374.49 301.356,328.4 					
						"/>
				</g>
				<g id="XMLID_5297_" style="opacity:0.2;">
					<polygon id="XMLID_5298_" points="301.356,237.424 381.296,283.514 381.297,374.49 301.356,328.4 					"/>
				</g>
				<g id="XMLID_5295_">
					<polygon id="XMLID_5296_" style="fill:#27DEBF;" points="381.296,283.514 460.19,237.961 460.19,328.937 381.297,374.49 					
						"/>
					<polygon id="XMLID_295_" style="opacity:0.1;" points="381.296,283.514 460.19,237.961 460.19,328.937 381.297,374.49 					"/>
				</g>
				<g id="XMLID_5291_">
					<polygon id="XMLID_5292_" style="fill:#27DEBF;" points="460.19,237.961 380.249,191.871 301.356,237.424 381.296,283.514 
											"/>
				</g>
				<g id="XMLID_5286_">
					<g id="XMLID_5287_">
						<polygon id="XMLID_5288_" style="fill:#27DEBF;" points="387.356,287.012 454.131,248.458 454.131,269.452 387.356,308.008 
													"/>
					</g>
				</g>
				<g id="XMLID_5281_" style="opacity:0.5;">
					<g id="XMLID_5284_">
						<polygon id="XMLID_5285_" style="fill:#FFFFFF;" points="387.356,287.012 454.131,248.458 454.131,269.452 387.356,308.008 
													"/>
					</g>
				</g>
				<g id="XMLID_5278_">
					<g id="XMLID_5279_">
						<polygon id="XMLID_5280_" style="fill:#27DEBF;" points="387.356,315.006 454.131,276.451 454.131,325.438 387.356,363.994 
													"/>
					</g>
				</g>
				<g id="XMLID_5264_" style="opacity:0.3;">
					<g id="XMLID_5265_">
						<polygon id="XMLID_5277_" points="387.356,315.006 454.131,276.451 454.131,325.438 387.356,363.994 						"/>
					</g>
				</g>
				<g id="XMLID_5262_">
					<polygon id="XMLID_5263_" style="fill:#27DEBF;" points="387.356,382.149 393.418,378.65 393.418,367.492 387.356,370.99 					
						"/>
				</g>
				<g id="XMLID_5258_">
					<polygon id="XMLID_5259_" style="fill:#27DEBF;" points="448.067,346.432 454.129,342.933 454.129,332.437 448.067,335.935 
											"/>
				</g>
			</g>
			<g id="XMLID_5253_">
				<path id="XMLID_5254_" style="fill:#455A64;" d="M408.051,279.486c0,0.966,2.892,0.08,6.46-1.98l11.32-6.536
					c3.568-2.06,6.461-4.513,6.461-5.48l0.001-1.75l-24.242,13.995C408.051,277.736,408.051,278.519,408.051,279.486z"/>
			</g>
			<polygon id="XMLID_5252_" style="opacity:0.1;" points="454.131,325.438 411.994,300.78 387.356,315.006 387.356,363.994 			"/>
		</g>
		<g id="Pot_3_">
			<g id="XMLID_862_" style="opacity:0.15;">
				<path id="XMLID_864_" d="M414.433,230.623c-5.515,3.184-5.515,8.346,0,11.53c5.515,3.184,14.456,3.184,19.971,0
					c5.515-3.184,5.515-8.346,0-11.53C428.889,227.439,419.948,227.439,414.433,230.623z"/>
			</g>
			<g id="XMLID_990_">
				<g id="XMLID_695_">
					<g id="XMLID_750_">
						<g id="XMLID_857_">
							<path id="XMLID_859_" style="fill:#EBEBEB;" d="M433.523,237.208c4.87-4.97,7.731-17.378,2.981-21.32h-24.17
								c-4.749,3.94-1.891,16.342,2.976,21.315c0.042,0.046,0.089,0.091,0.134,0.137c0.056,0.055,0.111,0.111,0.168,0.164
								c0.137,0.133,0.283,0.264,0.44,0.391c0.038,0.032,0.078,0.06,0.116,0.091c0.119,0.094,0.237,0.188,0.368,0.278
								c0.207,0.147,0.417,0.284,0.629,0.402c4.006,2.313,10.501,2.313,14.507,0h0h0.001c0.214-0.119,0.425-0.257,0.634-0.405
								c0.121-0.084,0.23-0.172,0.342-0.259c0.048-0.038,0.096-0.073,0.144-0.113c0.151-0.124,0.292-0.249,0.425-0.378
								c0.065-0.061,0.129-0.126,0.194-0.189C433.448,237.284,433.488,237.247,433.523,237.208z"/>
						</g>
						<g id="XMLID_850_">
							<path id="XMLID_851_" style="fill:#FAFAFA;" d="M414.433,214.301c-5.515,3.184-5.515,8.346,0,11.53
								c5.515,3.184,14.456,3.184,19.971,0c5.515-3.184,5.515-8.346,0-11.53C428.889,211.117,419.948,211.117,414.433,214.301z"/>
						</g>
						<g id="XMLID_848_">
							<path id="XMLID_849_" style="fill:#EBEBEB;" d="M418.344,216.559c-3.355,1.937-3.355,5.078,0,7.015
								c3.355,1.937,8.795,1.937,12.15,0c3.355-1.937,3.355-5.078,0-7.015C427.138,214.621,421.699,214.621,418.344,216.559z"/>
						</g>
						<g id="XMLID_845_">
							<path id="XMLID_846_" style="fill:#E0E0E0;" d="M430.494,219.888c-3.355-1.937-8.795-1.937-12.15,0
								c-0.932,0.538-1.595,1.171-2.01,1.843c0.414,0.672,1.078,1.305,2.01,1.843c3.355,1.937,8.795,1.937,12.15,0
								c0.932-0.538,1.596-1.17,2.01-1.843C432.089,221.059,431.426,220.426,430.494,219.888z"/>
						</g>
					</g>
				</g>
				<g id="XMLID_610_">
					<path id="XMLID_693_" style="fill:#27DEBF;" d="M418.496,221.622c0,0-2.594-2.471-4.819-6.406
						c-2.225-3.935-2.636-9.206-1.486-9.857c1.15-0.651,5.833,4.607,5.833,4.607s-0.689-3.212-0.493-6.716
						c0.196-3.504,1.051-6.689,2.054-7.332c1.003-0.643,3.249,3.779,4.213,6.983c0.963,3.204,1.538,5.837,1.538,5.837
						s0.657-4.331,1.726-7.373c1.168-3.326,2.228-4.078,3.049-3.749c0.822,0.328,1.364,1.881,1.604,6.311
						c0.168,3.102-0.198,6.34-0.198,6.34s1.651-1.815,3.484-3.576c2.013-1.933,2.874-2.2,3.45-1.831
						c0.575,0.369,0.734,3.377-2.383,9.016c-2.751,4.975-5.884,7.746-5.884,7.746S425.869,224.404,418.496,221.622z"/>
				</g>
				<g id="XMLID_605_" style="opacity:0.25;">
					<path id="XMLID_606_" d="M418.496,221.622c0,0-2.594-2.471-4.819-6.406c-2.225-3.935-2.636-9.206-1.486-9.857
						c1.15-0.651,5.833,4.607,5.833,4.607s-0.689-3.212-0.493-6.716c0.196-3.504,1.051-6.689,2.054-7.332
						c1.003-0.643,3.249,3.779,4.213,6.983c0.963,3.204,1.538,5.837,1.538,5.837s0.657-4.331,1.726-7.373
						c1.168-3.326,2.228-4.078,3.049-3.749c0.822,0.328,1.364,1.881,1.604,6.311c0.168,3.102-0.198,6.34-0.198,6.34
						s1.651-1.815,3.484-3.576c2.013-1.933,2.874-2.2,3.45-1.831c0.575,0.369,0.734,3.377-2.383,9.016
						c-2.751,4.975-5.884,7.746-5.884,7.746S425.869,224.404,418.496,221.622z"/>
				</g>
				<path style="opacity:0.1;" d="M421.341,213.758c0,0-3.128-8.275-3.316-14.291c-0.242,1.129-0.417,2.432-0.492,3.784
					c-0.197,3.505,0.492,6.716,0.492,6.716S419.755,212.873,421.341,213.758z"/>
				<path style="opacity:0.1;" d="M426.27,222.781c-1.163-0.202-4.129-0.869-6.607-2.715c-3.095-2.305-7.624-9.604-8.09-12.525
					c-0.006,2.051,0.67,5.138,2.105,7.675c2.225,3.935,4.819,6.406,4.819,6.406C421.7,222.831,424.324,222.988,426.27,222.781z"/>
			</g>
		</g>
		<g id="Book">
			<g id="XMLID_482_">
				<polygon id="XMLID_581_" style="fill:#455A64;" points="404.31,249.279 374.68,266.311 333.532,242.555 363.159,225.521 				"/>
				<path id="XMLID_580_" style="fill:#F5F5F5;" d="M374.396,265.225l28.749-16.619c-0.628-1.792-0.581-3.883,0.13-6.268
					L374.68,258.81C374.68,258.81,374.224,260.323,374.396,265.225z"/>
				<path id="XMLID_579_" style="fill:#263238;" d="M375.906,256.852c-1.275,0.736-2.309,2.526-2.309,3.999v4.671
					c0,1.472,1.034,2.069,2.309,1.333l28.401-16.418l0.003-1.157l-28.085,16.15c-0.765,0.442-1.385,0.084-1.384-0.8l0.022-4.329
					c0.001-0.883,0.622-1.958,1.387-2.399l28.058-16.156l0-1.312L375.906,256.852z"/>
				<path id="XMLID_502_" style="fill:#455A64;" d="M404.307,240.436l-41.148-23.757l-28.399,16.417
					c-1.274,0.736-2.309,2.527-2.309,3.999l-0.001,4.672c0.001,0.733,0.257,1.25,0.677,1.493l41.148,23.757
					c-0.42-0.243-0.676-0.76-0.677-1.493l-0.004-4.675c0-1.471,1.034-3.263,2.309-3.998L404.307,240.436z"/>
				<path id="XMLID_498_" style="fill:#37474F;" d="M374.271,258.574c-0.418,0.724-0.676,1.539-0.676,2.275l0.004,4.675
					c0.001,0.733,0.257,1.25,0.677,1.493l-41.148-23.757c-0.42-0.243-0.676-0.759-0.677-1.493l0.001-4.672
					c0-0.736,0.258-1.551,0.676-2.275L374.271,258.574z"/>
			</g>
		</g>
	</g>
</g>
<g id="Puff">
	<g id="Bean_Bag">
		<path style="fill:#27DEBF;" d="M141.487,170.952c-22.9,13.221-59.327,39.49-59.327,95.912s37.923,101.142,88.993,119.888
			c27.316,10.027,70.609,13.867,103.594-3.011c28.684-14.677,48.006-29.77,58.527-57.172c17.64-45.943-0.016-81.364-26.381-100.396
			c-26.365-19.032-37.125-26.21-59.6-47.488c-11.412-10.804-28.463-18.064-46.477-20.07
			C181.166,156.427,158.921,160.886,141.487,170.952z"/>
		<path style="opacity:0.6;fill:#FFFFFF;" d="M141.487,170.952c-22.9,13.221-59.327,39.49-59.327,95.912
			s37.923,101.142,88.993,119.888c27.316,10.027,70.609,13.867,103.594-3.011c28.684-14.677,48.006-29.77,58.527-57.172
			c17.64-45.943-0.016-81.364-26.381-100.396c-26.365-19.032-37.125-26.21-59.6-47.488c-11.412-10.804-28.463-18.064-46.477-20.07
			C181.166,156.427,158.921,160.886,141.487,170.952z"/>
		<path style="opacity:0.15;fill:#27DEBF;" d="M147.42,359.348c-45.251-36.871-48.491-95.422-37.322-131.16
			c11.693-37.413,47.063-65.526,90.738-69.571c-0.007-0.001-0.013-0.002-0.021-0.003c-3.119-0.347-6.307-0.508-9.527-0.525
			c-39.36,6.314-71.765,34.213-82.822,69.589c-11.311,36.196-7.994,95.618,37.876,132.993
			c19.608,15.976,49.263,29.845,72.702,34.633c2.794,0.049,5.604,0.027,8.424-0.084C199.255,391.186,166.791,375.13,147.42,359.348z
			"/>
		<path style="opacity:0.05;" d="M147.42,359.348c-45.251-36.871-48.491-95.422-37.322-131.16
			c11.693-37.413,47.063-65.526,90.738-69.571c-0.007-0.001-0.013-0.002-0.021-0.003c-3.119-0.347-6.307-0.508-9.527-0.525
			c-39.36,6.314-71.765,34.213-82.822,69.589c-11.311,36.196-7.994,95.618,37.876,132.993
			c19.608,15.976,49.263,29.845,72.702,34.633c2.794,0.049,5.604,0.027,8.424-0.084C199.255,391.186,166.791,375.13,147.42,359.348z
			"/>
	</g>
</g>
<g id="Plant">
	<g id="Pot_2_">
		<g id="XMLID_5313_">
			<g id="XMLID_5330_">
				<g id="XMLID_5331_">
					<g id="XMLID_5344_">
						<path id="XMLID_5345_" style="fill:#37474F;" d="M99.797,383.47c12.184-12.432,19.341-49.521,7.457-59.382H46.787
							c-11.881,9.858-4.732,46.929,7.445,59.37c0.104,0.116,0.224,0.227,0.334,0.342c0.14,0.138,0.279,0.277,0.42,0.41
							c0.344,0.333,0.709,0.66,1.101,0.98c0.096,0.08,0.194,0.151,0.291,0.228c0.299,0.234,0.593,0.469,0.92,0.695
							c0.519,0.368,1.044,0.711,1.575,1.006c10.023,5.786,26.272,5.786,36.293,0l0.001,0l0.001,0
							c0.535-0.297,1.063-0.643,1.586-1.014c0.303-0.21,0.577-0.43,0.856-0.647c0.12-0.095,0.24-0.183,0.36-0.282
							c0.378-0.309,0.73-0.624,1.062-0.945c0.163-0.153,0.324-0.314,0.484-0.473C99.608,383.661,99.709,383.567,99.797,383.47z"/>
					</g>
					<g id="XMLID_5340_">
						<path id="XMLID_5341_" style="fill:#455A64;" d="M52.038,320.117c-13.796,7.966-13.796,20.88,0,28.845
							c13.797,7.966,36.165,7.966,49.961,0c13.796-7.965,13.796-20.88-0.001-28.845C88.203,312.152,65.835,312.151,52.038,320.117z"
							/>
					</g>
					<g id="XMLID_5336_">
						<path id="XMLID_5337_" style="fill:#27DEBF;" d="M58.674,323.948c-10.132,5.85-10.132,15.334,0,21.183
							c10.132,5.85,26.559,5.85,36.69,0c10.132-5.849,10.131-15.333,0-21.183C85.232,318.098,68.805,318.098,58.674,323.948z"/>
					</g>
					<g id="XMLID_5334_" style="opacity:0.2;">
						<path id="XMLID_5335_" style="fill:#FFFFFF;" d="M58.674,323.948c-10.132,5.85-10.132,15.334,0,21.183
							c10.132,5.85,26.559,5.85,36.69,0c10.132-5.849,10.131-15.333,0-21.183C85.232,318.098,68.805,318.098,58.674,323.948z"/>
					</g>
					<g id="XMLID_5332_">
						<path id="XMLID_5333_" style="fill:#F5F5F5;" d="M95.364,334.001c-10.131-5.85-26.558-5.85-36.69,0
							c-2.814,1.625-4.817,3.535-6.069,5.565c1.251,2.03,3.254,3.94,6.069,5.565c10.132,5.85,26.559,5.85,36.69,0
							c2.815-1.625,4.818-3.535,6.069-5.565C100.182,337.536,98.179,335.626,95.364,334.001z"/>
					</g>
				</g>
			</g>
			<g id="Plants_11_">
				<g id="XMLID_5319_">
					<g id="XMLID_5328_">
						<path id="XMLID_5329_" style="fill:#27DEBF;" d="M84.081,311.204c0.626-1.272,1.153-2.593,1.426-4.08
							c0.627-3.406-0.223-7.31-2.979-9.407c-1.097-0.834-2.524-1.453-2.991-2.75c-0.257-0.714-0.16-1.503-0.028-2.251
							c0.512-2.908,1.494-5.902,0.685-8.742c-0.748-2.627-2.955-4.641-5.423-5.812c-2.468-1.171-5.206-1.62-7.902-2.064
							c-1.437-0.237-2.907-0.487-4.178-1.199c-1.562-0.874-2.047-2.418-3.021-3.773c-1.072-1.493-2.467-2.875-3.833-4.095
							c-2.847-2.545-6.414-4.638-10.356-4.464c-8.224,0.364-7.992,7.441-5.617,12.806c2.375,5.365,2.999,7.111-2.139,12.7
							c-5.138,5.589-5.149,12.478,0.98,16.337c6.129,3.859,10.12,4.366,7.693,11.794c-2.167,6.631-3.509,12.292,2.619,19.379
							c3.961,4.58,9.376,7.85,16.151,7.572c1.921-0.079,6.141-0.963,7.923-1.848c1.865-0.927,0.608-2.377,1.238-4.217
							c1.354-3.954,2.708-7.907,4.061-11.861c1.048-3.06,1.846-6.455,3.23-9.353C82.399,314.249,83.314,312.763,84.081,311.204z"/>
					</g>
					<g id="XMLID_5326_" style="opacity:0.25;">
						<path id="XMLID_5327_" d="M84.081,311.204c0.626-1.272,1.153-2.593,1.426-4.08c0.627-3.406-0.223-7.31-2.979-9.407
							c-1.097-0.834-2.524-1.453-2.991-2.75c-0.257-0.714-0.16-1.503-0.028-2.251c0.512-2.908,1.494-5.902,0.685-8.742
							c-0.748-2.627-2.955-4.641-5.423-5.812c-2.468-1.171-5.206-1.62-7.902-2.064c-1.437-0.237-2.907-0.487-4.178-1.199
							c-1.562-0.874-2.047-2.418-3.021-3.773c-1.072-1.493-2.467-2.875-3.833-4.095c-2.847-2.545-6.414-4.638-10.356-4.464
							c-8.224,0.364-7.992,7.441-5.617,12.806c2.375,5.365,2.999,7.111-2.139,12.7c-5.138,5.589-5.149,12.478,0.98,16.337
							c6.129,3.859,10.12,4.366,7.693,11.794c-2.167,6.631-3.509,12.292,2.619,19.379c3.961,4.58,9.376,7.85,16.151,7.572
							c1.921-0.079,6.141-0.963,7.923-1.848c1.865-0.927,0.608-2.377,1.238-4.217c1.354-3.954,2.708-7.907,4.061-11.861
							c1.048-3.06,1.846-6.455,3.23-9.353C82.399,314.249,83.314,312.763,84.081,311.204z"/>
					</g>
					<g id="XMLID_5324_">
						<path id="XMLID_5325_" style="fill:#FFFFFF;" d="M72.899,341.274c-0.239-0.083-0.409-0.313-0.407-0.583
							c0.347-40.623-22.042-64.877-22.269-65.117c-0.23-0.245-0.22-0.632,0.022-0.865c0.241-0.234,0.625-0.227,0.855,0.02
							c0.23,0.243,22.954,24.83,22.601,65.971c-0.003,0.338-0.276,0.61-0.61,0.608C73.025,341.306,72.96,341.295,72.899,341.274z"/>
					</g>
					<g id="XMLID_5322_">
						<path id="XMLID_5323_" style="fill:#FFFFFF;" d="M66.383,303.487c-0.042-0.015-0.083-0.034-0.123-0.059
							c-7.285-4.584-20.287-8.005-20.416-8.041c-0.327-0.086-0.518-0.417-0.434-0.745c0.084-0.327,0.415-0.525,0.738-0.44
							c0.541,0.139,13.311,3.503,20.753,8.186c0.284,0.179,0.37,0.555,0.193,0.843C66.941,303.478,66.644,303.578,66.383,303.487z"
							/>
					</g>
					<g id="XMLID_5320_">
						<path id="XMLID_5321_" style="fill:#FFFFFF;" d="M64.132,297.917c-0.011-0.004-0.021-0.007-0.032-0.013
							c-0.309-0.127-0.458-0.484-0.33-0.797c2.55-6.299,6.551-11.102,6.721-11.304c0.216-0.257,0.6-0.292,0.853-0.071
							c0.255,0.218,0.286,0.605,0.069,0.863c-0.04,0.048-4.047,4.862-6.523,10.973C64.768,297.871,64.434,298.022,64.132,297.917z"
							/>
					</g>
				</g>
				<g id="XMLID_5314_">
					<path id="XMLID_5318_" style="fill:#27DEBF;" d="M78.608,345.674c0,0,7.602,2.877,17.836,0.66
						c10.234-2.217,16.494-11.772,16.494-11.772s-11.069-4.435-17.524-4.865c0,0,10.016-1.707,19.387,0.416
						c0,0,5.924-2.206,4.802-12.21c0,0-5.575-4.109-18.409-2.499c0,0,6.431-4.59,17.705-5.945
						c0.887,0.009-0.313-13.023-1.388-18.832c-1.075-5.809-3.339-7.288-7.949-6.786c-4.61,0.501-18.115,5.981-19.845,9.326
						c-1.73,3.345-0.048,11.872-0.048,11.872s-3.748-4.664-3.763-11.16c0,0-5.132,1.876-7.876,4.299
						c-2.744,2.423-4.116,4.381-4.908,6.145c0.641,4.573,2.792,11.55,5.809,15.447c0,0-6.798-4.389-8.351-12.474
						c0,0-5.436,6.943-5.383,15.909C65.255,333.426,69.801,341.016,78.608,345.674z"/>
					<path id="XMLID_5317_" style="opacity:0.1;" d="M78.608,345.674c0,0,7.602,2.877,17.836,0.66
						c10.234-2.217,16.494-11.772,16.494-11.772s-11.069-4.435-17.524-4.865c0,0,10.016-1.707,19.387,0.416
						c0,0,5.924-2.206,4.802-12.21c0,0-5.575-4.109-18.409-2.499c0,0,6.431-4.59,17.705-5.945
						c0.887,0.009-0.313-13.023-1.388-18.832c-1.075-5.809-3.339-7.288-7.949-6.786c-4.61,0.501-18.115,5.981-19.845,9.326
						c-1.73,3.345-0.048,11.872-0.048,11.872s-3.748-4.664-3.763-11.16c0,0-5.132,1.876-7.876,4.299
						c-2.744,2.423-4.116,4.381-4.908,6.145c0.641,4.573,2.792,11.55,5.809,15.447c0,0-6.798-4.389-8.351-12.474
						c0,0-5.436,6.943-5.383,15.909C65.255,333.426,69.801,341.016,78.608,345.674z"/>
					<g id="XMLID_5315_">
						<path id="XMLID_5316_" style="fill:#FFFFFF;" d="M77.255,344.765c0.201-0.079,0.351-0.269,0.37-0.501
							c1.548-19.386,23.238-49.67,32.826-55.75c0.271-0.172,0.354-0.536,0.183-0.811c-0.171-0.275-0.531-0.354-0.802-0.186
							c-9.745,6.181-31.794,36.956-33.365,56.652c-0.026,0.324,0.212,0.607,0.532,0.633C77.09,344.81,77.176,344.796,77.255,344.765
							z"/>
					</g>
				</g>
			</g>
		</g>
	</g>
</g>
<g id="Smiley_Faces">
	<g id="Smiley_Face_1_">
		<g>
			<path style="fill:#27DEBF;" d="M329.48,155.835c0-19.219-11.685-41.545-26.099-49.867c-6.611-3.817-12.676-4.085-17.275-1.338
				l0,0l-11.217,6.629l5.029,10.593c-0.043,0.79-0.072,1.593-0.072,2.423c0,18.453,10.774,39.762,24.391,48.798l4.953,10.432
				l11.124-6.482l0,0C325.923,173.88,329.48,166.439,329.48,155.835z"/>
			<path style="opacity:0.15;" d="M329.48,155.835c0-19.219-11.685-41.545-26.099-49.867c-6.611-3.817-12.676-4.085-17.275-1.338
				l0,0l-11.217,6.629l5.029,10.593c-0.043,0.79-0.072,1.593-0.072,2.423c0,18.453,10.774,39.762,24.391,48.798l4.953,10.432
				l11.124-6.482l0,0C325.923,173.88,329.48,166.439,329.48,155.835z"/>
		</g>
		<g id="XMLID_296_">
			<path id="XMLID_14574_" style="fill:#27DEBF;" d="M265.909,132.261c0,19.259,11.709,41.631,26.153,49.97
				c14.444,8.339,26.153-0.513,26.153-19.771c0-19.259-11.709-41.631-26.153-49.97C277.619,104.15,265.909,113.002,265.909,132.261z
				"/>
			<g id="XMLID_462_">
				<path id="XMLID_467_" style="fill:#455A64;" d="M309.917,159.929c0,5.365-1.401,9.706-3.759,12.508
					c-3.281,3.93-8.373,4.887-14.08,1.572c-5.741-3.315-10.833-10.184-14.114-17.873c-2.359-5.536-3.76-11.483-3.76-16.848
					L309.917,159.929z"/>
				<path id="XMLID_14620_" style="fill:#F28F8F;" d="M306.159,172.436c-3.281,3.93-8.373,4.887-14.08,1.572
					c-5.741-3.315-10.833-10.184-14.114-17.873c3.657-2.631,8.646-2.666,14.114,0.479
					C297.513,159.758,302.502,165.533,306.159,172.436z"/>
			</g>
			<g id="XMLID_298_">
				<g id="XMLID_300_">
					<path id="XMLID_452_" style="fill:#455A64;" d="M308.648,151.71c-0.374,0-0.748-0.137-1.038-0.414l-9.301-8.804
						c-0.43-0.407-0.584-1.031-0.387-1.592c0.194-0.56,0.701-0.956,1.292-1.008l7.172-0.641c0.774-0.09,1.562,0.536,1.639,1.368
						c0.074,0.831-0.541,1.565-1.372,1.639l-3.835,0.344l6.869,6.501c0.604,0.572,0.631,1.529,0.06,2.134
						C309.449,151.551,309.048,151.71,308.648,151.71z"/>
				</g>
				<g id="XMLID_299_">
					<path id="XMLID_14560_" style="fill:#455A64;" d="M285.109,134.684c-0.1,0-0.204-0.01-0.307-0.032l-9.301-1.932
						c-0.818-0.17-1.342-0.97-1.172-1.786c0.17-0.814,0.955-1.346,1.786-1.171l5.179,1.076l-4.536-5.64
						c-0.521-0.651-0.417-1.6,0.234-2.122c0.644-0.522,1.595-0.422,2.122,0.23l7.172,8.921c0.397,0.497,0.444,1.191,0.11,1.734
						C286.12,134.417,285.626,134.684,285.109,134.684z"/>
				</g>
			</g>
		</g>
		<path style="fill:#27DEBF;" d="M272.674,158.688c0,0-1.795,6.867-9.945,10.268c-1.215,0.507-1.171,2.257,0.084,2.655
			c4.29,1.359,11.853,2.291,19.428-3.856L272.674,158.688z"/>
	</g>
	<g id="Smiley_Face">
		<g>
			<path style="fill:#27DEBF;" d="M268.901,84.378c0-10.747-6.534-23.23-14.594-27.884c-3.697-2.134-7.088-2.284-9.659-0.748l0,0
				l-6.272,3.707l2.812,5.923c-0.024,0.442-0.04,0.891-0.04,1.355c0,10.318,6.024,22.233,13.638,27.286l2.769,5.834l6.22-3.625l0,0
				C266.912,94.468,268.901,90.307,268.901,84.378z"/>
			<path style="opacity:0.15;" d="M268.901,84.378c0-10.747-6.534-23.23-14.594-27.884c-3.697-2.134-7.088-2.284-9.659-0.748l0,0
				l-6.272,3.707l2.812,5.923c-0.024,0.442-0.04,0.891-0.04,1.355c0,10.318,6.024,22.233,13.638,27.286l2.769,5.834l6.22-3.625l0,0
				C266.912,94.468,268.901,90.307,268.901,84.378z"/>
		</g>
		<g id="XMLID_867_">
			<path id="XMLID_1073_" style="fill:#27DEBF;" d="M233.354,71.197c0,10.769,6.547,23.279,14.624,27.942
				c8.077,4.663,14.624-0.287,14.624-11.055c0-10.769-6.547-23.279-14.624-27.942C239.902,55.478,233.354,60.428,233.354,71.197z"/>
			<g id="XMLID_1070_">
				<path id="XMLID_1072_" style="fill:#455A64;" d="M257.962,86.667c0,3-0.783,5.427-2.102,6.994
					c-1.835,2.198-4.682,2.733-7.873,0.879c-3.21-1.854-6.057-5.694-7.892-9.994c-1.319-3.096-2.102-6.421-2.102-9.421
					L257.962,86.667z"/>
				<path id="XMLID_1071_" style="fill:#F28F8F;" d="M255.86,93.661c-1.835,2.198-4.682,2.733-7.873,0.879
					c-3.21-1.854-6.057-5.694-7.892-9.994c2.045-1.471,4.835-1.491,7.892,0.267C251.026,86.572,253.815,89.801,255.86,93.661z"/>
			</g>
			<g id="XMLID_597_">
				<g id="XMLID_598_">
					<path id="XMLID_865_" style="fill:#455A64;" d="M252.661,76.274c0,1.247,0.657,2.638,1.467,3.106
						c0.81,0.468,1.467-0.164,1.467-1.412c0-1.247-0.657-2.638-1.467-3.106C253.318,74.394,252.661,75.026,252.661,76.274z"/>
					<path id="XMLID_600_" style="fill:#455A64;" d="M240.424,69.451c0,1.248,0.657,2.638,1.467,3.106
						c0.81,0.468,1.467-0.164,1.467-1.412c0-1.248-0.657-2.638-1.467-3.106C241.081,67.572,240.424,68.204,240.424,69.451z"/>
				</g>
			</g>
		</g>
		<path style="fill:#27DEBF;" d="M237.137,85.973c0,0-1.004,3.84-5.561,5.741c-0.679,0.284-0.655,1.262,0.047,1.484
			c2.399,0.76,6.628,1.281,10.863-2.156L237.137,85.973z"/>
	</g>
</g>
<g id="Character">
	<g>
		<path style="opacity:0.15;fill:#27DEBF;" d="M282.325,259.524c-16.988-9.401-20.288-19.682-35.033-57.987
			c-14.745-38.305-42.213-26.195-42.213-26.195s-51.515,15.129-59.452,39.106c-6.441,19.457,1.793,44.373,8.277,59.266
			c5.16,11.849,11.314,18.54,11.314,18.54c-19.414-3.821-34.88,9.278-34.88,9.278s16.379-7.774,43.268,3.011
			c15.921,6.386,28.33,19.013,45.242,23.97c13.131,3.85,26.445,7.737,37.265,16.502c9.727,7.881,16.547,19.456,18.143,31.924
			c0.272,2.129,0.502,4.445,1.454,6.296c17.104-8.825,30.832-17.862,41.304-29.664c0.321-3.821,0.088-7.746,0.189-11.57
			c0.375-14.091,0.554-28.226-0.194-42.308C315.29,267.326,299.314,268.924,282.325,259.524z"/>
		<path style="opacity:0.05;" d="M282.325,259.524c-16.988-9.401-20.288-19.682-35.033-57.987
			c-14.745-38.305-42.213-26.195-42.213-26.195s-51.515,15.129-59.452,39.106c-6.441,19.457,1.793,44.373,8.278,59.266
			c5.16,11.849,11.314,18.54,11.314,18.54c-19.414-3.821-34.88,9.278-34.88,9.278s16.379-7.775,43.268,3.011
			c15.921,6.386,28.33,19.013,45.242,23.97c13.131,3.849,26.445,7.737,37.265,16.502c9.727,7.881,16.547,19.456,18.143,31.924
			c0.272,2.129,0.502,4.445,1.454,6.296c17.104-8.825,30.832-17.862,41.304-29.664c0.321-3.821,0.088-7.746,0.189-11.57
			c0.375-14.091,0.554-28.226-0.194-42.308C315.29,267.326,299.313,268.924,282.325,259.524z"/>
	</g>
	<g id="Character_18_">
		<g>
			<path style="fill:#263238;" d="M156.116,110.446c-1.806-1.559-3.911-2.532-6.411-2.914c-7.62-1.163-15.766,2.666-19.732,9.276
				c-3.571,5.952-3.729,13.378-2.561,20.221c1.168,6.842,3.542,13.434,4.71,20.276c1.037,6.072-4.948,11.645-8.934,15.441
				c-0.728,0.693-1.522,1.698-1.06,2.59c0.3,0.58,1.008,0.8,1.649,0.931c7.277,1.488,15.297-1.731,19.528-7.836
				c0.196,1.711,0.392,3.422,0.588,5.133c2.767-0.59,5.005-2.775,6.226-5.327c1.221-2.552,1.547-5.442,1.578-8.271
				c0.101-9.435-3.505-18.09-4.543-27.298c-1.167-10.358,1.708-18.428,8.388-17.817c2.722,0.249,3.935-0.777,1.997-2.986
				C157.087,111.347,156.613,110.875,156.116,110.446z"/>
			<path style="fill:#27DEBF;" d="M154.397,112.201c-0.444-0.375-4.985-10.478-1.588-17.339c3.397-6.862,6.786-3.042,7.518,2.167
				C161.06,102.237,158.829,108.677,154.397,112.201z"/>
			<path style="fill:#27DEBF;" d="M156.221,112.898c-0.484,0.322-11.453,1.861-17.093-3.316c-5.641-5.178-1.026-7.366,4.18-6.615
				C148.512,103.718,154.074,107.658,156.221,112.898z"/>
		</g>
		<g id="XMLID_5442_">
			<g id="XMLID_5452_">
				<path id="XMLID_5454_" style="fill:#263238;" d="M284.911,362.718c-1.175,1.351-2.517,2.918-2.284,4.535
					c0.233,1.616,1.247,5.494,4.829,9.029c3.583,3.535,6.146,10.466,7,15.215c0.854,4.749,1.852,16.912,8.132,21.424
					c6.28,4.513,21.085,6.233,20.679-2.652c-0.406-8.885-19.539-42.241-19.539-42.241L284.911,362.718z"/>
				<path id="XMLID_5453_" style="fill:#F28F8F;" d="M293.316,368.056c1.934,4.391,4.98,11.752,6.814,18.813
					c1.834,7.061,4.174,11.981,7.898,13.735c3.724,1.755,9.141,1.149,6.874-3.6c-2.267-4.749-11.174-28.976-11.174-28.976
					L293.316,368.056z"/>
			</g>
			<path id="XMLID_5451_" style="fill:#FFA8A7;" d="M240.714,248.857c0,0,29.502,11.885,43.899,18.772
				c14.398,6.887,28.097,13.654,31.171,19.603c3.249,6.288,3.206,21.623,2.349,36.417c-0.857,14.794-2.847,41.397-2.847,41.397
				l-44.002-59.75l-42.605-25.385L240.714,248.857z"/>
			<path style="fill:#27DEBF;" d="M240.714,248.857c0,0,32.122,11.901,47.452,20.479c0,0-7.966,4.966-14.174,13.384
				c-6.209,8.418-8,18.476-8,18.476l-37.313-17.719L240.714,248.857z"/>
			<path style="opacity:0.3;" d="M240.714,248.857c0,0,32.122,11.901,47.452,20.479c0,0-7.966,4.966-14.174,13.384
				c-6.209,8.418-8,18.476-8,18.476l-37.313-17.719L240.714,248.857z"/>
			<path id="XMLID_5450_" style="opacity:0.15;" d="M297.1,311.226c-4.501-9.252-13.652-15.12-22.182-19.87
				c-6.784-3.778-22.985-12.121-29.617-15.565c0.859-2.569,0.69-6.414-0.446-9.586c-1.871,8.829-3.734,11.119-3.734,11.119
				l43.401,29.357l31.413,50.596C315.935,357.276,301.601,320.477,297.1,311.226z"/>
			<g id="XMLID_5443_">
				<path id="XMLID_5446_" style="fill:#263238;" d="M320.945,411.042c-1.153,0.842-0.855,3.78-0.637,5.925
					c0.218,2.145-1.21,5.053,2.075,8.231c3.285,3.178,8.579,3.233,13.06,7.572c4.481,4.338,11.425,12.418,23.201,12.478
					c11.776,0.059,19.596-5.444,21.008-9.239c1.412-3.794-1.135-6.585-9.202-9.213c-8.565-2.791-11.002-3.629-11.002-3.629
					L320.945,411.042z"/>
				<path id="XMLID_5445_" style="fill:#FFA8A7;" d="M328.275,385.343c0,0,8.58,13.944,13.32,20.179
					c4.741,6.234,11.331,11.706,18.402,16.618c1.54,1.07,4.9,2.93,6.156,3.793c1.118,0.768,1.551,1.875,0.621,3.368
					c-1.833,2.942-11.982,6.126-18.854,3.279c-6.872-2.847-14.636-9.624-18.965-12.223c-2.167-1.301-4.209-2.551-5.709-3.475
					c-1.439-0.887-2.311-2.453-2.295-4.144c0.005-0.479,0.003-1.04-0.008-1.695c-0.059-3.525-7.935-16.043-7.935-16.043
					L328.275,385.343z"/>
				<path id="XMLID_5444_" style="fill:#FFA8A7;" d="M174.788,267.684c1.145,11.918,1.807,18.458,9.135,28.941
					c7.091,10.144,23.83,16.724,41.843,21.859c14.907,4.25,36.824,10.284,41.141,11.009c4.317,0.725,5.323,2.973,6.664,10.516
					c1.341,7.543,6.99,18.993,19.085,32.046c12.775,13.787,24.754,30.479,24.754,30.479s11.975-0.556,16.189-8.752
					c0,0-36.995-77.104-42.757-85.931c-5.762-8.827-50.128-30.803-50.128-30.803s4.234-12.806-0.001-28.192L174.788,267.684z"/>
				<path style="fill:#27DEBF;" d="M171.934,268.862c2.854,12.332,2.607,30.756,30.056,42.356
					c20.001,8.453,46.524,14.122,46.524,14.122s-4.05-6.049,0.448-16.623c4.183-9.832,13.029-16.76,18.473-17.727l-25.989-13.902
					c0,0,5.847-11.402-0.732-28.232L171.934,268.862z"/>
				<path style="opacity:0.3;" d="M171.934,268.862c2.854,12.332,2.607,30.756,30.056,42.356
					c20.001,8.453,46.524,14.122,46.524,14.122s-4.05-6.049,0.448-16.623c4.183-9.832,13.029-16.76,18.473-17.727l-25.989-13.902
					c0,0,5.847-11.402-0.732-28.232L171.934,268.862z"/>
			</g>
		</g>
		<path style="fill:#F28F8F;" d="M204.397,168.164c7.516-0.615,18.276,0.303,22.738,6.01c5.927,7.58,18.033,38.383,21.922,53.749
			c1.062,4.197-8.47,20.784-16.194,10.916C218.867,220.957,204.397,168.164,204.397,168.164z"/>
		<g>
			<path style="fill:#455A64;" d="M243.652,249.243l-8.737-8.895l-4.924-8.437l-2.521-12.401c8.136-7.296,9.709-18.863,4.787-26.86
				c-3.809-6.188-8.035-10.485-12.571-14.318c-8.393-7.093-12.377-9.274-15.287-10.167c-3.769,0.29-6.532,0.765-6.532,0.765
				l-21.562,5.59l-9.41,4.166c5.934,6.07,8.893,17.7,7.043,28.707c-1.85,11.008-7.273,12.991-7.273,12.991l-0.483,6.05
				c0,0-0.784,10.439,1.052,18.616c2.755,12.266,2.756,21.143,6.756,34.858c15.373,3.064,41.215-0.138,56.208-11.342
				C244.931,257.554,243.652,249.243,243.652,249.243z"/>
		</g>
		<g>
			<g id="XMLID_5404_">
				<g id="XMLID_5405_">
					<g id="XMLID_5406_">
						<path id="XMLID_5412_" style="fill:#455A64;" d="M275.21,211.042l0.033,0.001l-1.711-1.303l0,0.021
							c-0.385-0.273-0.96-0.33-1.684-0.086l-17.329,5.86c-1.606,0.543-3.278,2.307-3.735,3.94l-10.463,37.351
							c-0.242,0.866-0.086,1.511,0.347,1.855l-0.014,0.005l1.765,1.344l-0.002-0.021c0.384,0.283,0.966,0.345,1.7,0.097
							l17.329-5.859c1.606-0.543,3.279-2.307,3.735-3.94c2.055-7.341,8.409-30.011,10.463-37.352
							C275.902,212.034,275.707,211.365,275.21,211.042z"/>
						<path id="XMLID_5407_" style="fill:#263238;" d="M254.379,217.973c-0.874,0.78-1.602,1.826-1.881,2.812l-10.468,37.34
							c-0.224,0.837-0.105,1.476,0.288,1.824l-1.659-1.256l0.015-0.017c-0.441-0.345-0.593-0.982-0.355-1.853l10.467-37.356
							c0.251-0.92,0.92-1.881,1.729-2.657L254.379,217.973z"/>
						<path id="XMLID_5410_" style="fill:#37474F;" d="M242.037,258.131l10.463-37.35c0.457-1.633,2.129-3.397,3.735-3.94
							l17.329-5.86c1.606-0.543,2.538,0.34,2.081,1.972c-2.054,7.341-8.408,30.01-10.463,37.352
							c-0.457,1.633-2.129,3.397-3.735,3.94l-17.329,5.859C242.512,260.647,241.58,259.764,242.037,258.131z"/>
					</g>
				</g>
				<path style="fill:#F28F8F;" d="M272.258,225.044c3.044-0.921,4.952,2.332,4.774,8.066c-0.178,5.734-3.442,16.375-12.305,13.799
					c-3.452-1.003-5.974-6.702-2.4-9.283c6.226-4.498,8.317-6.815,8.317-6.815L272.258,225.044z"/>
			</g>
		</g>
		<path style="fill:#FFA8A7;" d="M163.876,261.042c-3.658-7.325-10.085-25.194-12.437-42.989
			c-3.184-24.094-1.71-33.74,15.453-39.369c12.733,10.984,9.248,38.126,9.248,38.126c2.301,10.071,6.136,27.219,8.704,33.575
			c16.225-0.168,45.85-9.734,49.145-11.547c1.694-0.933,3.549-3.665,4.634-5.122c1.481-1.988,2.593-3.121,4.401-4.108
			c2.245-1.226,4.112-1.957,5.721-2.858l-2.174,7.796c0.184,0.45,1.212,0.545,1.684,0.693c3.436,1.073,7.15,1.511,10.738,1.203
			c7.555-0.647,14.57-6.219,13.178,0.503c-0.554,2.678-1.595,7.702-5.562,11.14c-3.915,3.394-18.662,5.103-22.784,7.075
			c0,0-37.667,16.46-53.16,18.516C174.078,275.88,171.011,275.328,163.876,261.042z"/>
		<g id="XMLID_5385_">
			<g id="XMLID_5401_">
				<path id="XMLID_5403_" style="fill:#263238;" d="M197.725,94.911c-0.884,0.101-1.768,0.115-2.677-0.081
					c-3.474-0.749-7.052-1.131-10.605-1.107c-6.002,0.041-12.007,1.335-17.339,4.134c-9.07,4.762-15.591,13.697-17.21,23.83
					c-1.853,11.592,3.623,23.549,10.977,31.221c3.862,4.029,5.374,5.779,8.286,7.973c2.911,2.194,5.724,3.979,7.557,4.055
					l-1.099-7.582c4.33,1.548,8.241,2.073,13.113,1.426c4.278-0.568,8.626-0.46,12.476-2.642c4.34-2.46,7.659-6.819,8.523-11.77
					c0.285-1.631,0.336-3.333,1.002-4.85c0.738-1.681,2.148-2.952,3.396-4.298c4.609-4.97,7.354-11.631,7.583-18.405
					c0.069-2.038-0.107-4.168-1.141-5.926c-1.034-1.758-3.121-3.027-5.107-2.565c0.92-2.347,1.853-4.753,1.917-7.273
					c0.064-2.52-0.913-5.219-3.059-6.541c-1.85-1.139-4.174-1.072-6.34-0.903c-0.175,0.014-0.35,0.028-0.526,0.042
					c-2.19,0.182-4.374,0.43-6.548,0.744C199.816,94.553,198.771,94.792,197.725,94.911z"/>
			</g>
			<g id="XMLID_5388_">
				<g id="XMLID_5397_">
					<path id="XMLID_5398_" style="fill:#FFA8A7;" d="M203.304,106.966c4.229,1.736,10.735,7.992,12.653,28.658
						c1.589,17.124-3.291,23.158-5.944,24.808c-2.652,1.65-6.929,1.874-12.369,1.76l0.402,7.362
						c14.041,8.105,18.517,19.271,6.34,19.396c-15.445,0.159-28.77-11.948-28.936-13.311l-2.789-22.901c0,0-4.725,2.965-8.807-0.865
						c-4.375-4.104-6.306-10.657-3.4-14.614c2.907-3.956,8.585-3.248,11.658,0.133c0,0,7.07-0.899,17.449-8.732
						C199.94,120.825,201.842,115.336,203.304,106.966z"/>
				</g>
				<path style="fill:#263238;" d="M172.111,137.392l0.753,8.271l0,0c3.246-0.296,5.638-3.167,5.343-6.413l-0.899-9.879
					L172.111,137.392z"/>
				<g id="XMLID_5395_">
					<path id="XMLID_5396_" style="fill:#263238;" d="M212.582,124.4l-5.258-1.413c0.338-1.478,1.79-2.36,3.242-1.97
						C212.017,121.408,212.92,122.922,212.582,124.4z"/>
				</g>
				<g id="XMLID_5393_">
					<path id="XMLID_5394_" style="fill:#B16668;" d="M193.57,148.068l10.815,0.997c-0.164,3.021-2.719,5.246-5.706,4.97
						C195.693,153.759,193.406,151.087,193.57,148.068z"/>
				</g>
				<g id="XMLID_5391_">
					<polygon id="XMLID_5392_" style="fill:#F28F8F;" points="201.106,130.28 202.491,144.625 209.23,141.73 					"/>
				</g>
				<g id="XMLID_5389_">
					<path id="XMLID_5390_" style="fill:#F28F8F;" d="M197.643,162.193c-5.703,0.078-17.698-1.558-20.153-5.85
						c0,0,1.014,2.774,4.88,5.224c3.868,2.448,15.495,4.687,15.495,4.687L197.643,162.193z"/>
				</g>
			</g>
			<path style="fill:#F28F8F;" d="M194.574,151.559c0.578-0.669,1.355-1.177,2.272-1.423c2.306-0.617,4.651,0.656,5.453,2.856
				c-0.997,0.754-2.257,1.168-3.62,1.042C196.962,153.876,195.496,152.912,194.574,151.559z"/>
			<path id="XMLID_5387_" style="fill:#263238;" d="M190.269,137.023c-0.012-1.617,1.012-3.075,2.579-3.512
				c1.569-0.427,3.193,0.303,4.007,1.688c-1.102-0.532-2.376-0.692-3.633-0.342C191.965,135.207,190.937,135.998,190.269,137.023z"
				/>
			<path id="XMLID_5386_" style="fill:#263238;" d="M206.701,133.638c0.248-1.598,1.493-2.873,3.109-3.052
				c1.617-0.17,3.103,0.811,3.684,2.309c-1.002-0.702-2.234-1.065-3.531-0.921C208.668,132.117,207.525,132.733,206.701,133.638z"/>
		</g>
		<path style="fill:#37474F;" d="M215.07,220.199c-5.574,4.71-15.29,9.055-26.981,3.269c0,0,5.263,7.292,14.471,6.182
			C213.954,228.277,215.07,220.199,215.07,220.199z"/>
	</g>
</g>
<g id="Speech_Bubbles_1_">
	<g id="Speech_Bubbles">
		<g id="XMLID_5754_">
			<g id="XMLID_5758_">
				<g id="XMLID_5805_">
					<path id="XMLID_5806_" style="fill:#263238;" d="M149.593,81.54l-5.664-3.272c-0.113-0.051-0.205-0.123-0.266-0.235
						l-1.043-1.82l3.364-1.943l-0.102,0.297L149.593,81.54z"/>
				</g>
				<path id="XMLID_5775_" style="fill:#37474F;" d="M145.471,74.548l3.92,6.79c0.25,0.434,0.895,0.373,1.059-0.101l4.143-11.96
					L145.471,74.548z"/>
				<path id="XMLID_5769_" style="fill:#37474F;" d="M163.963,38.327c0-1.747-1.226-3.871-2.739-4.745l-2.231-1.288
					c-1.513-0.874-3.966-0.874-5.479,0L109.156,57.88c-1.513,0.874-2.74,2.998-2.74,4.745v22.464c0,1.747,1.227,3.871,2.74,4.745
					l2.231,1.288c1.513,0.874,3.966,0.874,5.479,0l44.614-25.772c2.461-1.403,2.484-2.812,2.484-4.559L163.963,38.327z"/>
				<path id="XMLID_5768_" style="fill:#263238;" d="M106.417,85.089c0,1.747,1.227,3.871,2.74,4.745l2.23,1.288
					c1.368,0.79,3.496,0.867,5.011,0.23c-1.289,0.488-2.271-0.249-2.271-1.811l0-22.464c0-0.874,0.307-1.841,0.802-2.7l-7.709-4.451
					c-0.496,0.858-0.802,1.826-0.802,2.7V85.089z"/>
				<path id="XMLID_5759_" style="fill:#455A64;" d="M163.874,37.548c-0.319-1.163-1.38-1.534-2.645-0.805l-44.365,25.591
					c-0.754,0.434-1.444,1.176-1.93,2.045l-7.706-4.448c0.498-0.869,1.176-1.61,1.93-2.045l44.352-25.591
					c1.521-0.869,3.975-0.869,5.483,0l2.237,1.291C162.519,34.327,163.605,35.989,163.874,37.548z"/>
			</g>
			<g id="XMLID_5755_">
				<path id="XMLID_5757_" style="fill:#27DEBF;" d="M121.488,68.703l31.686-18.382c0.917-0.529,1.66-0.288,1.66,0.54
					c0,0.828-0.743,1.928-1.66,2.457L121.488,71.7c-0.917,0.529-1.66,0.288-1.66-0.54C119.828,70.332,120.571,69.232,121.488,68.703
					z"/>
				<path id="XMLID_5756_" style="fill:#27DEBF;" d="M121.488,76.227l31.686-18.376c0.917-0.529,1.66-0.288,1.66,0.54
					c0,0.828-0.743,1.928-1.66,2.457l-31.686,18.376c-0.917,0.529-1.66,0.288-1.66-0.54
					C119.828,77.856,120.571,76.756,121.488,76.227z"/>
			</g>
		</g>
		<g id="XMLID_5807_">
			<g id="XMLID_5812_">
				<g id="XMLID_5817_">
					<path id="XMLID_5851_" style="fill:#27DEBF;" d="M77.08,89.832l-5.664-3.272c-0.113-0.051-0.205-0.123-0.266-0.235l-1.043-1.82
						l3.364-1.943l-0.102,0.297L77.08,89.832z"/>
					<path id="XMLID_5850_" style="opacity:0.2;" d="M77.08,89.832l-5.664-3.272c-0.113-0.051-0.205-0.123-0.266-0.235l-1.043-1.82
						l3.364-1.943l-0.102,0.297L77.08,89.832z"/>
				</g>
				<path id="XMLID_5816_" style="fill:#27DEBF;" d="M72.958,82.84l3.92,6.79c0.25,0.434,0.895,0.373,1.059-0.101l4.143-11.96
					L72.958,82.84z"/>
				<path id="XMLID_5815_" style="fill:#27DEBF;" d="M119.455,26.987c0-1.747-1.226-3.871-2.739-4.745l-2.231-1.288
					c-1.513-0.874-3.966-0.874-5.479,0L56.344,51.371c-1.513,0.874-2.74,2.998-2.74,4.745v25.848c0,1.747,1.227,3.871,2.74,4.745
					l2.231,1.288c1.513,0.874,3.966,0.874,5.479,0l52.918-30.603c2.461-1.403,2.484-2.811,2.484-4.559L119.455,26.987z"/>
				<path id="XMLID_5814_" style="opacity:0.2;" d="M53.605,81.964c0,1.747,1.227,3.871,2.74,4.745l2.23,1.288
					c1.368,0.79,3.496,0.867,5.011,0.23c-1.289,0.488-2.271-0.249-2.271-1.811l0-25.848c0-0.874,0.307-1.841,0.802-2.7l-7.709-4.451
					c-0.496,0.858-0.802,1.826-0.802,2.7V81.964z"/>
				<path id="XMLID_5813_" style="opacity:0.4;fill:#FFFFFF;" d="M119.366,26.208c-0.32-1.163-1.38-1.534-2.645-0.805L64.052,55.825
					c-0.754,0.434-1.444,1.176-1.93,2.045l-7.706-4.448c0.498-0.869,1.176-1.61,1.929-2.045l52.656-30.422
					c1.521-0.869,3.974-0.869,5.483,0l2.236,1.291C118.011,22.987,119.097,24.649,119.366,26.208z"/>
			</g>
			<g id="XMLID_5808_">
				<path id="XMLID_5811_" style="fill:#FFFFFF;" d="M68.676,67.824l28.476-16.493c0.917-0.529,1.66-0.288,1.66,0.54
					c0,0.828-0.743,1.928-1.66,2.457L68.676,70.821c-0.917,0.529-1.66,0.288-1.66-0.54C67.016,69.454,67.759,68.354,68.676,67.824z"
					/>
				<path id="XMLID_5810_" style="fill:#FFFFFF;" d="M68.676,75.348l39.99-23.207c0.917-0.529,1.66-0.288,1.66,0.54
					c0,0.828-0.743,1.928-1.66,2.457l-39.99,23.207c-0.917,0.529-1.66,0.288-1.66-0.54C67.016,76.978,67.759,75.877,68.676,75.348z"
					/>
				<path id="XMLID_5809_" style="fill:#FFFFFF;" d="M68.676,59.926l39.99-23.207c0.917-0.529,1.66-0.287,1.66,0.54
					c0,0.828-0.743,1.928-1.66,2.457l-39.99,23.207c-0.917,0.529-1.66,0.288-1.66-0.54C67.016,61.556,67.759,60.456,68.676,59.926z"
					/>
			</g>
		</g>
	</g>
</g>
</svg>
