<svg width="3000" height="3000" viewBox="0 0 3000 3000" fill="none" xmlns="http://www.w3.org/2000/svg">
<path d="M1500 342L1833 920H2500L2437 1030L2418 996H1875L2285 1703C2285 1703 2262 1756 2245 1779L1792 994H1584L1625 920L1750 921L1500 491L1449 579C1449 579 1395 579 1359 587L1500 342Z" fill="#150A04" stroke="#150A04" stroke-miterlimit="10"/>
<path d="M1500 178L1752 611C1752 611 1718 602 1653 590L1500 322L1313 645L1465 909H1381L1229 645L1500 178Z" fill="#150A04" stroke="#150A04" stroke-miterlimit="10"/>
<path d="M1227 628L1215 646L1248 701C1248 701 1000 766 822 1009C822 1009 670 1097 602 1339C602 1339 669 815 1227 628Z" fill="#150A04" stroke="#150A04" stroke-miterlimit="10"/>
<path d="M562 883L500 992H730C730 992 757 952 782 921H581L562 883Z" fill="#150A04" stroke="#150A04" stroke-miterlimit="10"/>
<path d="M848 991C848 991 902 945 976 922H909C909 922 869 962 848 991Z" fill="#150A04" stroke="#150A04" stroke-miterlimit="10"/>
<path d="M1546 588L1589 665C1589 665 1447 652 1341 674L1325 646L1352 599C1352 599 1404 585 1546 588Z" fill="#150A04" stroke="#150A04" stroke-miterlimit="10"/>
<path d="M1346 684L1367 719L1391 678C1391 678 1363 680 1346 684Z" fill="#150A04" stroke="#150A04" stroke-miterlimit="10"/>
<path d="M1717 699L1728 718L1738 705C1731.25 702.209 1724.21 700.196 1717 699Z" fill="#150A04" stroke="#150A04" stroke-miterlimit="10"/>
<path d="M1518 920L1497 956C1497 956 1450 928 1419 919L1518 920Z" fill="#150A04" stroke="#150A04" stroke-miterlimit="10"/>
<path d="M1676 813L1633 739L1193 1500C1193 1500 1180 1802 1431 1979L1493 1873C1493 1873 1326 1729 1325 1500C1324 1271 1496 1123 1496 1123L1676 813Z" fill="#150A04" stroke="#150A04" stroke-miterlimit="10"/>
<path d="M1500 2675L1655 2406C1655 2406 1705 2398 1752 2386L1500 2821L1228 2352L1505 1874C1505 1874 1653 1773 1676 1500C1676 1500 1667 1258 1507 1126L1570 1015C1570 1015 1812 1179 1808 1500L1314 2351L1500 2675Z" fill="#150A04" stroke="#150A04" stroke-miterlimit="10"/>
<path d="M1663 2309C1663 2309 1720 2300 1737 2292L1621 2092L1609 2087H1534L1663 2309Z" fill="#150A04" stroke="#150A04" stroke-miterlimit="10"/>
<path d="M1484 2076L1504 2042C1504 2042 1530 2062 1577 2076H1484Z" fill="#150A04" stroke="#150A04" stroke-miterlimit="10"/>
<path d="M850 2004C850 2004 882 2049 914 2076H1374L1416 2003L850 2004Z" fill="#150A04" stroke="#150A04" stroke-miterlimit="10"/>
<path d="M1271 740L1313 813L1273 883C1273 883 1229 879 1190 879L1271 740Z" fill="#150A04" stroke="#150A04" stroke-miterlimit="10"/>
<path d="M1117 1007C1144.31 1005.24 1171.69 1005.24 1199 1007L626 2003H726C726 2003 759 2058 779 2076L500 2077L1117 1007Z" fill="#150A04" stroke="#150A04" stroke-miterlimit="10"/>
<path d="M642 1805L691 1722C691 1722 660 1651 660 1499C660 1347 730 1216 813 1138C896 1060 1003 993 1190 993C1190 993 1327 1002 1431 1068L1490 965C1490 965 1393 891 1190 891C987 891 832 1005 761 1076C690 1147 583 1321 583 1499C583 1656 642 1805 642 1805Z" fill="#150A04" stroke="#150A04" stroke-miterlimit="10"/>
<path d="M690 1914L733 1841C733 1841 876 2187 1244 2299L1214 2350L1222 2366C1222 2366 876 2272 690 1914Z" fill="#150A04" stroke="#150A04" stroke-miterlimit="10"/>
<path d="M1343 2324L1327 2351L1353 2396C1353 2396 1840 2498 2191 2089L2095 2088C2095 2088 1831 2407 1343 2324Z" fill="#150A04" stroke="#150A04" stroke-miterlimit="10"/>
<path d="M2023 2076C2023 2076 2076 2060 2160 2003H2374L2323 1915C2323 1915 2342 1878 2359 1834L2500 2076H2023Z" fill="#150A04" stroke="#150A04" stroke-miterlimit="10"/>
<path d="M2181 1992H2265C2265 1992 2378 1818 2399 1652C2399 1652 2353 1860 2181 1992Z" fill="#150A04" stroke="#150A04" stroke-miterlimit="10"/>
<path d="M1660 602L1711 687C1711 687 1928 737 2096 910H2195C2195 910 2006 659 1660 602Z" fill="#150A04" stroke="#150A04" stroke-miterlimit="10"/>
<path d="M1571 1928L1509 2033C1509 2033 1622 2109 1808 2109C1994 2109 2143 2000 2168 1986C2193 1972 2387 1827 2410 1499C2410 1499 2420 1247 2265 1003H2177C2177 1003 2348 1222 2339 1499C2328.4 1826.4 2084 2012 1808 2004C1665 1999.9 1571 1928 1571 1928Z" fill="#150A04" stroke="#150A04" stroke-miterlimit="10"/>
<path d="M1499.5 1586.5C1547.55 1586.5 1586.5 1547.55 1586.5 1499.5C1586.5 1451.45 1547.55 1412.5 1499.5 1412.5C1451.45 1412.5 1412.5 1451.45 1412.5 1499.5C1412.5 1547.55 1451.45 1586.5 1499.5 1586.5Z" fill="#150A04"/>
<path fill-rule="evenodd" clip-rule="evenodd" d="M1586.5 1499.5C1586.5 1547.55 1547.55 1586.5 1499.5 1586.5C1451.45 1586.5 1412.5 1547.55 1412.5 1499.5C1412.5 1451.45 1451.45 1412.5 1499.5 1412.5C1547.55 1412.5 1586.5 1451.45 1586.5 1499.5Z" fill="#150A04"/>
<path fill-rule="evenodd" clip-rule="evenodd" d="M1499.5 1338.5C1410.58 1338.5 1338.5 1410.58 1338.5 1499.5C1338.5 1588.42 1410.58 1660.5 1499.5 1660.5C1588.42 1660.5 1660.5 1588.42 1660.5 1499.5C1660.5 1410.58 1588.42 1338.5 1499.5 1338.5ZM1323.5 1499.5C1323.5 1402.3 1402.3 1323.5 1499.5 1323.5C1596.7 1323.5 1675.5 1402.3 1675.5 1499.5C1675.5 1596.7 1596.7 1675.5 1499.5 1675.5C1402.3 1675.5 1323.5 1596.7 1323.5 1499.5ZM1499.5 1420C1455.59 1420 1420 1455.59 1420 1499.5C1420 1543.41 1455.59 1579 1499.5 1579C1543.41 1579 1579 1543.41 1579 1499.5C1579 1455.59 1543.41 1420 1499.5 1420ZM1405 1499.5C1405 1447.31 1447.31 1405 1499.5 1405C1551.69 1405 1594 1447.31 1594 1499.5C1594 1551.69 1551.69 1594 1499.5 1594C1447.31 1594 1405 1551.69 1405 1499.5Z" fill="#150A04"/>
</svg>
